<svg width="240" height="72" viewBox="0 0 240 72" fill="none" xmlns="http://www.w3.org/2000/svg">
<path d="M87.2881 19.304V53H79.0801V39.128H66.3121V53H58.1041V19.304H66.3121V32.504H79.0801V19.304H87.2881ZM121.342 26.216V53H113.134V49.352C112.302 50.536 111.166 51.496 109.726 52.232C108.318 52.936 106.75 53.288 105.022 53.288C102.974 53.288 101.166 52.84 99.5975 51.944C98.0295 51.016 96.8135 49.688 95.9495 47.96C95.0855 46.232 94.6535 44.2 94.6535 41.864V26.216H102.814V40.76C102.814 42.552 103.278 43.944 104.206 44.936C105.134 45.928 106.382 46.424 107.95 46.424C109.55 46.424 110.814 45.928 111.742 44.936C112.67 43.944 113.134 42.552 113.134 40.76V26.216H121.342ZM127.285 39.56C127.285 36.808 127.797 34.392 128.821 32.312C129.877 30.232 131.301 28.632 133.093 27.512C134.885 26.392 136.885 25.832 139.093 25.832C140.853 25.832 142.453 26.2 143.893 26.936C145.365 27.672 146.517 28.664 147.349 29.912V17.48H155.557V53H147.349V49.16C146.581 50.44 145.477 51.464 144.037 52.232C142.629 53 140.981 53.384 139.093 53.384C136.885 53.384 134.885 52.824 133.093 51.704C131.301 50.552 129.877 48.936 128.821 46.856C127.797 44.744 127.285 42.312 127.285 39.56ZM147.349 39.608C147.349 37.56 146.773 35.944 145.621 34.76C144.501 33.576 143.125 32.984 141.493 32.984C139.861 32.984 138.469 33.576 137.317 34.76C136.197 35.912 135.637 37.512 135.637 39.56C135.637 41.608 136.197 43.24 137.317 44.456C138.469 45.64 139.861 46.232 141.493 46.232C143.125 46.232 144.501 45.64 145.621 44.456C146.773 43.272 147.349 41.656 147.349 39.608ZM161.543 39.56C161.543 36.808 162.055 34.392 163.079 32.312C164.135 30.232 165.559 28.632 167.351 27.512C169.143 26.392 171.143 25.832 173.351 25.832C175.111 25.832 176.711 26.2 178.151 26.936C179.623 27.672 180.775 28.664 181.607 29.912V17.48H189.815V53H181.607V49.16C180.839 50.44 179.735 51.464 178.295 52.232C176.887 53 175.239 53.384 173.351 53.384C171.143 53.384 169.143 52.824 167.351 51.704C165.559 50.552 164.135 48.936 163.079 46.856C162.055 44.744 161.543 42.312 161.543 39.56ZM181.607 39.608C181.607 37.56 181.031 35.944 179.879 34.76C178.759 33.576 177.383 32.984 175.751 32.984C174.119 32.984 172.727 33.576 171.575 34.76C170.455 35.912 169.895 37.512 169.895 39.56C169.895 41.608 170.455 43.24 171.575 44.456C172.727 45.64 174.119 46.232 175.751 46.232C177.383 46.232 178.759 45.64 179.879 44.456C181.031 43.272 181.607 41.656 181.607 39.608ZM205.642 17.48V53H197.434V17.48H205.642ZM238.518 39.176C238.518 39.944 238.47 40.744 238.374 41.576H219.798C219.926 43.24 220.454 44.52 221.382 45.416C222.342 46.28 223.51 46.712 224.886 46.712C226.934 46.712 228.358 45.848 229.158 44.12H237.894C237.446 45.88 236.63 47.464 235.446 48.872C234.294 50.28 232.838 51.384 231.078 52.184C229.318 52.984 227.35 53.384 225.174 53.384C222.55 53.384 220.214 52.824 218.166 51.704C216.118 50.584 214.518 48.984 213.366 46.904C212.214 44.824 211.638 42.392 211.638 39.608C211.638 36.824 212.198 34.392 213.318 32.312C214.47 30.232 216.07 28.632 218.118 27.512C220.166 26.392 222.518 25.832 225.174 25.832C227.766 25.832 230.07 26.376 232.086 27.464C234.102 28.552 235.67 30.104 236.79 32.12C237.942 34.136 238.518 36.488 238.518 39.176ZM230.118 37.016C230.118 35.608 229.638 34.488 228.678 33.656C227.718 32.824 226.518 32.408 225.078 32.408C223.702 32.408 222.534 32.808 221.574 33.608C220.646 34.408 220.07 35.544 219.846 37.016H230.118Z" fill="white"/>
<path d="M29.44 16.2402C21.336 16.2362 12.88 18.0622 4.34601 20.4302C3.26301 20.6472 2.20501 21.3572 1.64601 22.2342C1.13101 23.0592 0.946012 23.8902 0.784012 24.7602C-0.0459878 29.4052 0.0560122 33.9672 0.229012 39.0222C0.266012 40.1782 0.439012 41.5502 0.979012 42.3832C1.54301 43.2262 2.51001 43.7602 3.66501 43.9362C5.14901 44.1612 6.62701 44.3302 8.10501 44.4862L7.77801 53.6122C7.75684 53.931 7.81351 54.2501 7.94312 54.5421C8.07273 54.8341 8.2714 55.0901 8.52201 55.2882C8.91701 55.5882 9.35701 55.7222 9.80801 55.7552C10.71 55.8232 11.768 55.4372 12.295 54.4372C14.596 50.0052 16.042 48.0492 18.921 45.1052C26.431 45.2892 32.986 44.8722 40.409 44.3232C43.033 44.2552 44.833 42.1092 45.309 40.3972C46.734 35.9572 46.955 30.4772 47.106 24.9372C47.17 22.7402 46.408 20.5852 45.059 19.4462C43.778 18.4062 42.225 18.0282 40.803 17.6432C36.851 16.7482 32.898 16.2672 29.44 16.2402ZM40.236 19.7132C41.66 20.0992 42.916 20.4732 43.707 21.1152C45.03 22.5202 44.986 23.4552 44.967 24.9712C44.818 30.3442 44.56 35.5592 43.347 39.5112C42.824 40.9852 41.914 42.0342 40.193 42.1932C32.632 42.7532 26.071 43.1832 18.47 42.9682C18.3221 42.9636 18.1748 42.9894 18.0372 43.0439C17.8996 43.0984 17.7746 43.1805 17.67 43.2852C14.476 46.5092 12.842 48.7512 10.409 53.4352C10.352 53.5432 10.229 53.6072 10.079 53.6192C9.97701 53.6132 9.93601 53.5352 9.92901 53.4642L10.259 43.5692C10.279 43.0352 9.83801 42.5252 9.30701 42.4672C7.53701 42.2952 5.77201 42.0842 3.99901 41.8172C3.23701 41.7002 2.95601 41.4922 2.74701 41.1822C2.38401 40.3162 2.39301 39.7812 2.36401 38.9482C2.19401 33.9392 2.11101 29.5612 2.88001 25.2062C2.95101 24.5612 3.19201 23.9022 3.44801 23.3522C3.87201 22.6892 4.52201 22.5922 5.17301 22.4112C13.519 20.1072 21.685 18.3822 29.373 18.3772C33.141 18.5142 37.099 18.8922 40.236 19.7132V19.7132ZM11.407 28.2002C10.257 29.5792 10.372 31.4482 11.26 32.7022C11.724 33.3572 12.448 33.8852 13.33 34.0042C14.474 34.0982 15.2 33.6352 15.983 33.1032C17.403 31.8682 17.547 29.7162 16.467 28.1612C15.917 27.3692 15.039 26.8932 14.141 26.8612C12.911 26.8732 12.076 27.4212 11.407 28.2002V28.2002ZM23.845 27.0762C22.7 27.1132 21.774 27.9062 21.208 28.7622C20.561 29.7412 20.183 30.9662 20.707 32.1682C21.714 34.4782 25.193 34.4502 26.582 32.1012C27.222 31.0192 27.058 29.7892 26.582 28.8962C26.107 28.0032 25.39 27.2762 24.346 27.1102C24.1805 27.0829 24.0127 27.0715 23.845 27.0762V27.0762ZM33.943 27.2932C33.5833 27.2819 33.2238 27.3213 32.875 27.4102C31.498 27.7772 30.327 29.1982 30.505 31.0162C30.595 31.9302 31.015 32.8222 31.773 33.4362C32.532 34.0512 33.633 34.3262 34.794 34.0882C36.129 33.8142 36.955 32.7392 37.231 31.7002C37.507 30.6622 37.438 29.6042 36.797 28.7462C36.088 27.7962 35.015 27.3182 33.943 27.2932V27.2932ZM14.047 28.9962C14.304 28.9982 14.507 29.0802 14.715 29.3802C15.182 30.0542 15.052 31.0742 14.581 31.4832C14.111 31.8922 13.819 31.9292 13.613 31.9012C13.408 31.8732 13.2 31.7312 13.013 31.4672C12.656 30.9642 12.551 30.1492 13.02 29.5672C13.27 29.2362 13.728 29.0292 14.047 28.9962V28.9962ZM23.995 29.2302C24.035 29.2362 24.482 29.4962 24.696 29.8972C24.91 30.2992 24.95 30.6722 24.746 31.0162C24.141 32.0392 22.854 31.7632 22.66 31.3162C22.586 31.1472 22.641 30.4642 22.994 29.9312C23.346 29.3982 23.789 29.1972 23.995 29.2302V29.2302ZM35.078 30.0142C35.143 30.1012 35.302 30.6852 35.178 31.1502C35.055 31.6142 34.854 31.9002 34.36 32.0002C33.728 32.1302 33.375 32.0002 33.109 31.7842C32.842 31.5682 32.663 31.2042 32.625 30.8162C32.53 29.8512 32.877 29.6262 33.425 29.4802C34.067 29.3232 34.789 29.5972 35.078 30.0142Z" fill="white"/>
</svg>
